<svg width="30" height="30" viewBox="0 0 30 30" fill="none" xmlns="http://www.w3.org/2000/svg">
<g clip-path="url(#clip0_1394_274)">
<rect width="30" height="30" rx="5" fill="#02797E"/>
<path d="M29.9135 17.4615L6.75 24.7308L0 6.35577L24.3173 5L29.9135 17.4615Z" fill="white"/>
<path d="M12.4039 13.7692C12.4039 14.2308 12.2885 14.6346 12.0866 15.0096C11.8847 15.3558 11.5962 15.6731 11.2212 15.9039C10.8462 16.1346 10.3847 16.3077 9.86544 16.4231C9.34621 16.5385 8.76929 16.5962 8.10583 16.5962H7.64429V18.9615H4.64429V11.0865H8.16352C9.49044 11.0865 10.5289 11.3173 11.2789 11.75C12.0289 12.1827 12.4039 12.875 12.4039 13.7692ZM9.51929 13.7981C9.51929 13.1058 9.00006 12.7596 7.99044 12.7596H7.61544V14.8654H7.96159C8.45198 14.8654 8.85583 14.7789 9.11544 14.6058C9.37506 14.4615 9.51929 14.1731 9.51929 13.7981Z" fill="#02797E"/>
<path d="M19.8461 18.9616C19.3846 19.0481 18.8653 19.1058 18.2596 19.1058C17.423 19.1058 16.673 19.0193 16.0384 18.8173C15.3749 18.6154 14.8269 18.3558 14.3653 18.0097C13.9038 17.6635 13.5576 17.2308 13.3269 16.7404C13.0961 16.2212 12.9807 15.6731 12.9807 15.0673C12.9807 14.4616 13.0961 13.9135 13.3557 13.3943C13.6153 12.9039 13.9615 12.4712 14.423 12.0962C14.8846 11.75 15.4326 11.4616 16.0673 11.2597C16.7019 11.0577 17.3942 10.9712 18.1442 10.9712C18.7211 10.9712 19.2692 11 19.7596 11.0866C20.2499 11.202 20.2499 11.202 20.6249 11.3462V13.452C20.3365 13.2789 19.9903 13.1347 19.6153 13.0481C19.2403 12.9327 18.8365 12.875 18.4326 12.875C17.7403 12.875 17.1923 13.077 16.7596 13.4231C16.3269 13.7981 16.1249 14.3173 16.1249 15.0385C16.1249 15.3847 16.1826 15.702 16.3269 15.9904C16.4711 16.25 16.6442 16.4808 16.8749 16.6539C17.1057 16.827 17.3653 16.9712 17.6826 17.0577C17.9999 17.1443 18.3173 17.202 18.6634 17.202C19.0096 17.202 19.3846 17.1731 19.7307 17.0866C20.0769 17 20.4519 16.9135 20.8269 16.7404V18.7308C20.3653 18.8462 20.3076 18.875 19.8461 18.9616Z" fill="#02797E"/>
<path d="M25.0962 11.0865H22.0674V18.9904H25.0962V11.0865Z" fill="#02797E"/>
<path d="M25.4134 8.60577C25.4134 9.125 25.2403 9.55769 24.8942 9.84615C24.548 10.1346 24.1153 10.3077 23.5961 10.3077C23.0769 10.3077 22.6442 10.1635 22.298 9.84615C21.9519 9.55769 21.7788 9.125 21.7788 8.60577C21.7788 8.05769 21.9519 7.65385 22.298 7.33654C22.6442 7.01923 23.0769 6.875 23.5961 6.875C24.1153 6.875 24.548 7.01923 24.8942 7.33654C25.2403 7.625 25.4134 8.05769 25.4134 8.60577Z" fill="#02797E"/>
</g>
<defs>
<clipPath id="clip0_1394_274">
<rect width="30" height="30" rx="5" fill="white"/>
</clipPath>
</defs>
</svg>
