<svg width="22" height="22" viewBox="0 0 22 22" fill="none" xmlns="http://www.w3.org/2000/svg">
<g clip-path="url(#clip0_5_74)">
<path d="M20.0062 1.1V17.9438H1.99365V4.74375L6.7374 0H18.9405C19.5249 0 20.0062 0.515625 20.0062 1.1Z" fill="#EFF2F3"/>
<path d="M5.74082 4.74375H2.02832L6.7377 0L6.70332 3.7125C6.7377 4.29688 6.29082 4.74375 5.74082 4.74375Z" fill="#DADEDE"/>
<path d="M12.7532 9.62501C11.7563 8.66251 11.0345 7.56251 11.0345 7.56251C11.3095 7.15001 11.9626 4.77813 10.9657 4.09063C9.96885 3.40313 9.45322 4.67501 9.45322 4.67501C9.00635 6.25626 10.072 7.70001 10.072 7.70001L8.86885 10.3469C8.73135 10.3469 4.91572 11.825 6.22197 13.6469C7.5626 15.4688 9.41885 11.0688 9.41885 11.0688C10.1407 10.8281 12.3407 10.5188 12.3407 10.5188C13.2001 11.6875 14.2313 12.0656 14.2313 12.0656C15.8126 12.4781 15.9845 11.1719 15.9845 11.1719C16.0188 9.45313 12.7532 9.62501 12.7532 9.62501ZM6.8751 13.0281C6.84072 13.0281 6.84072 12.9938 6.84072 12.9938C6.63447 12.5125 8.21572 11.5844 8.21572 11.5844C8.21572 11.5844 7.35635 13.2344 6.8751 13.0281ZM10.4501 4.70938C10.897 5.12188 10.5188 6.53126 10.5188 6.53126C10.5188 6.53126 10.0032 5.12188 10.4501 4.70938ZM10.0376 10.0375L10.6563 8.52501L11.6188 9.69376L10.0376 10.0375ZM15.1251 11.1375C14.8501 11.5844 13.7157 10.6219 13.6126 10.5188C13.7845 10.5188 15.2626 10.6219 15.1251 11.1375ZM20.0063 16.8438V20.9C20.0063 21.4844 19.5251 22 18.9063 22H3.05947C2.4751 22 1.95947 21.5188 1.95947 20.9V16.8438H20.0063Z" fill="#F2786B"/>
<path d="M9.59072 18.6313C9.59072 18.9063 9.4876 19.1125 9.31572 19.2844C9.14385 19.4219 8.86885 19.4906 8.5251 19.4906H8.2501V20.4875H7.80322V17.8406H8.59385C8.9376 17.8406 9.17822 17.9094 9.3501 18.0469C9.52197 18.1844 9.59072 18.3563 9.59072 18.6313ZM8.28447 19.1469H8.5251C8.73135 19.1469 8.90322 19.1125 9.00635 19.0438C9.10947 18.975 9.17822 18.8375 9.17822 18.6656C9.17822 18.5281 9.14385 18.3906 9.04072 18.3219C8.9376 18.2531 8.8001 18.2188 8.59385 18.2188H8.28447V19.1469ZM12.3063 19.1469C12.3063 19.5938 12.1688 19.9375 11.9282 20.1438C11.6876 20.3844 11.3438 20.4875 10.8626 20.4875H10.1063V17.8406H10.9313C11.3438 17.8406 11.6876 17.9438 11.9282 18.1844C12.1688 18.3906 12.3063 18.7344 12.3063 19.1469ZM11.8251 19.1469C11.8251 18.4938 11.5157 18.1844 10.9313 18.1844H10.5532V20.1094H10.8626C11.5157 20.1438 11.8251 19.8 11.8251 19.1469ZM13.3032 20.4875H12.8563V17.8406H14.3688V18.2188H13.3032V19.0438H14.3001V19.4219H13.3032V20.4875Z" fill="#EFF2F3"/>
</g>
<defs>
<clipPath id="clip0_5_74">
<rect width="22" height="22" fill="white"/>
</clipPath>
</defs>
</svg>
