<svg width="40" height="32" viewBox="0 0 40 32" fill="none" xmlns="http://www.w3.org/2000/svg">
<path d="M39 22C39.5 22 40 22.5 40 23V25C40 25.5625 39.5 26 39 26H36C36 29.3125 33.3125 32 30 32C26.6875 32 24 29.3125 24 26H16C16 29.3125 13.3125 32 10 32C6.6875 32 4 29.3125 4 26H3C1.3125 26 0 24.6875 0 23V3C0 1.375 1.3125 0 3 0H23C24.625 0 26 1.375 26 3V6H28.75C29.5 6 30.3125 6.375 30.875 6.9375L37.0625 13.125C37.625 13.6875 38 14.5 38 15.25V22H39ZM10 29C11.625 29 13 27.6875 13 26C13 24.375 11.625 23 10 23C8.3125 23 7 24.375 7 26C7 27.6875 8.3125 29 10 29ZM30 29C31.625 29 33 27.6875 33 26C33 24.375 31.625 23 30 23C28.3125 23 27 24.375 27 26C27 27.6875 28.3125 29 30 29ZM35 16V15.25L28.75 9H26V16H35Z" fill="#FFB100"/>
</svg>
