<svg width="15" height="15" viewBox="0 0 15 15" fill="none" xmlns="http://www.w3.org/2000/svg">
<rect width="15" height="15" rx="2" fill="#FFB100"/>
<path d="M6 0H9V5C9 5.55228 8.55228 6 8 6H7C6.44772 6 6 5.55228 6 5V0Z" fill="white"/>
<path d="M11 9.5C11 10.4283 10.6313 11.3185 9.97487 11.9749C9.3185 12.6313 8.42826 13 7.5 13C6.57174 13 5.6815 12.6313 5.02513 11.9749C4.36875 11.3185 4 10.4283 4 9.5L5.44589 9.5C5.44589 10.0448 5.66231 10.5673 6.04753 10.9525C6.43275 11.3377 6.95522 11.5541 7.5 11.5541C8.04478 11.5541 8.56725 11.3377 8.95247 10.9525C9.33769 10.5673 9.55411 10.0448 9.55411 9.5H11Z" fill="white"/>
</svg>
