<svg width="35" height="35" viewBox="0 0 35 35" fill="none" xmlns="http://www.w3.org/2000/svg">
<path d="M21.5 25.7917H5.45833V6.83333H21.5V8.9625H22.9583V3.91667C22.9583 3.14312 22.651 2.40125 22.1041 1.85427C21.5571 1.30729 20.8152 1 20.0417 1H6.91667C6.14312 1 5.40125 1.30729 4.85427 1.85427C4.30729 2.40125 4 3.14312 4 3.91667V30.1667C4 30.9402 4.30729 31.6821 4.85427 32.2291C5.40125 32.776 6.14312 33.0833 6.91667 33.0833H20.0417C20.8152 33.0833 21.5571 32.776 22.1041 32.2291C22.651 31.6821 22.9583 30.9402 22.9583 30.1667V23.5458H21.5V25.7917ZM6.91667 2.45833H20.0417C20.4284 2.45833 20.7994 2.61198 21.0729 2.88547C21.3464 3.15896 21.5 3.52989 21.5 3.91667V5.375H5.45833V3.91667C5.45833 3.52989 5.61198 3.15896 5.88547 2.88547C6.15896 2.61198 6.52989 2.45833 6.91667 2.45833ZM20.0417 31.625H6.91667C6.52989 31.625 6.15896 31.4714 5.88547 31.1979C5.61198 30.9244 5.45833 30.5534 5.45833 30.1667V27.25H21.5V30.1667C21.5 30.5534 21.3464 30.9244 21.0729 31.1979C20.7994 31.4714 20.4284 31.625 20.0417 31.625ZM15.6667 4.64583H11.2917V3.1875H15.6667V4.64583ZM11.2917 28.7083H15.6667V30.1667H11.2917V28.7083ZM28.0625 10.4792H14.2083V9.75H12.75V22.875H14.2083V22.1458H28.0625C28.6427 22.1458 29.1991 21.9154 29.6093 21.5051C30.0195 21.0949 30.25 20.5385 30.25 19.9583V12.6667C30.25 12.0865 30.0195 11.5301 29.6093 11.1199C29.1991 10.7096 28.6427 10.4792 28.0625 10.4792ZM28.0625 11.9375C28.2559 11.9375 28.4414 12.0143 28.5781 12.1511C28.7148 12.2878 28.7917 12.4733 28.7917 12.6667V13.3958H14.2083V11.9375H28.0625ZM28.0625 20.6875H14.2083V14.8542H28.7917V19.9583C28.7917 20.1517 28.7148 20.3372 28.5781 20.4739C28.4414 20.6107 28.2559 20.6875 28.0625 20.6875ZM22.9583 17.7708H27.3333V19.2292H22.9583V17.7708ZM15.6667 17.7708H20.0417V19.2292H15.6667V17.7708Z" fill="#FFB100"/>
</svg>
