<svg width="25" height="25" viewBox="0 0 25 25" fill="none" xmlns="http://www.w3.org/2000/svg">
<g id="Card">
<path id="Vector" d="M18.7104 5.30762H6.28963C5.46113 5.30861 4.66685 5.63817 4.08101 6.224C3.49518 6.80984 3.16562 7.60412 3.16463 8.43262V16.5674C3.16562 17.3959 3.49518 18.1901 4.08101 18.776C4.66685 19.3618 5.46113 19.6914 6.28963 19.6924H18.7104C19.5389 19.6914 20.3332 19.3618 20.919 18.776C21.5048 18.1901 21.8344 17.3959 21.8354 16.5674V8.43262C21.8344 7.60412 21.5048 6.80984 20.919 6.224C20.3332 5.63817 19.5389 5.30861 18.7104 5.30762ZM6.28963 6.55762H18.7104C19.2075 6.55815 19.6841 6.75586 20.0356 7.10738C20.3871 7.45889 20.5848 7.9355 20.5854 8.43262V9.25237H4.41463V8.43262C4.41516 7.9355 4.61287 7.45889 4.96439 7.10738C5.3159 6.75586 5.79251 6.55815 6.28963 6.55762ZM18.7104 18.4424H6.28963C5.79251 18.4418 5.3159 18.2441 4.96439 17.8926C4.61287 17.5411 4.41516 17.0645 4.41463 16.5674V10.5024H20.5854V16.5674C20.5848 17.0645 20.3871 17.5411 20.0356 17.8926C19.6841 18.2441 19.2075 18.4418 18.7104 18.4424ZM18.877 15.5194C18.877 15.6851 18.8112 15.8441 18.6939 15.9613C18.5767 16.0785 18.4178 16.1444 18.252 16.1444H16.7535C16.5877 16.1444 16.4288 16.0785 16.3116 15.9613C16.1944 15.8441 16.1285 15.6851 16.1285 15.5194C16.1285 15.3536 16.1944 15.1946 16.3116 15.0774C16.4288 14.9602 16.5877 14.8944 16.7535 14.8944H18.252C18.4178 14.8944 18.5767 14.9602 18.6939 15.0774C18.8112 15.1946 18.877 15.3536 18.877 15.5194Z" fill="#FFB100"/>
</g>
</svg>
