<svg width="142" height="40" viewBox="0 0 142 40" fill="none" xmlns="http://www.w3.org/2000/svg">
<rect x="0.5" y="0.0672607" width="41.5769" height="38.8654" rx="2.71154" fill="#0063AD"/>
<path d="M11.6814 16.3349V13.0994H3.23657V16.3349H5.17401V23.2559H3.23657V26.4914H11.6814V23.2559H9.74395V16.3349H11.6814Z" fill="white"/>
<path d="M21.0008 18.238C20.4788 18.0861 17.7931 17.3174 17.3281 17.1656C16.8631 17.0137 16.4835 16.7955 16.4835 16.5202C16.4835 16.245 16.9105 15.9508 17.7741 15.9508C20.4978 15.9508 21.8062 17.6306 21.8062 17.6306C21.8062 17.6306 21.9537 17.827 22.0031 17.8975H24.6309V13.3146H21.8099V14.1484C21.5944 13.9996 20.0037 12.9614 17.5369 12.9614C14.2817 12.9614 12.4691 14.6507 12.4691 17.1751C12.4691 19.6994 14.7562 20.7434 15.3921 21.0091C16.0279 21.2748 18.5144 21.9771 19.5773 22.3092C20.6402 22.6414 21.0293 22.8787 21.0293 23.0495C21.0293 23.2203 20.5642 23.6663 19.2356 23.6663C16.9213 23.6663 15.7295 22.3016 15.5203 22.0373V22.0352C15.4538 21.9461 15.3758 21.8407 15.3493 21.801C15.3186 21.755 15.2475 21.6531 15.1981 21.5826H12.5703V26.4766H15.5203V25.4546C15.8636 25.683 17.6206 26.7791 19.7291 26.7791C22.0827 26.7791 25.0816 25.7542 25.0816 22.556C25.0816 19.3578 21.5227 18.3898 21.0008 18.238Z" fill="white"/>
<path d="M32.5719 12.9165C28.6484 12.9165 25.4305 14.8782 25.4305 19.8857C25.4305 24.8933 28.9238 26.7689 32.589 26.7689C36.2543 26.7689 39.7131 24.9104 39.7131 19.9374C39.7131 14.9644 36.2544 12.9165 32.5719 12.9165ZM32.6063 23.4306C31.264 23.4306 30.4036 23.1208 30.4036 19.8685C30.4036 16.6162 31.0404 16.2721 32.6579 16.2721C33.6387 16.2721 34.8261 16.3409 34.8261 19.7653C34.8261 23.1897 33.9486 23.4306 32.6063 23.4306Z" fill="white"/>
<path d="M8.86363 11.6225C9.74561 10.3201 10.8302 9.16567 12.0736 8.20693C12.5763 8.57864 13.1107 8.91581 13.6726 9.21631C12.7313 10.2655 11.888 11.428 11.7483 11.6225H12.313C12.652 11.1656 13.3532 10.2465 14.0926 9.43162C14.9008 9.82892 15.7597 10.1539 16.6559 10.4014C16.4174 10.9075 16.237 11.35 16.1312 11.6225H16.6219C16.7346 11.3419 16.8998 10.9505 17.106 10.5181C18.2492 10.7974 19.4471 10.9539 20.6725 10.9778V11.6226H21.128V10.98C22.3445 10.9711 23.5358 10.8324 24.675 10.572C24.8692 10.9828 25.0255 11.3536 25.1336 11.6225H25.6243C25.5225 11.3608 25.3523 10.9425 25.1275 10.4612C26.0397 10.2239 26.915 9.90742 27.7394 9.51635C28.4504 10.3096 29.1152 11.1815 29.4425 11.6225H30.0072C29.8718 11.434 29.0722 10.3314 28.1635 9.3065C28.7882 8.98361 29.3805 8.61622 29.9342 8.20693C31.1776 9.16567 32.2623 10.3201 33.1442 11.6225H33.6921C30.9978 7.46419 26.317 4.70703 21.0038 4.70703C15.6907 4.70703 11.0098 7.46419 8.31555 11.6225H8.86363ZM16.8591 9.98478C16.0067 9.75451 15.1888 9.45265 14.4177 9.08337C14.5225 8.9745 14.6272 8.86904 14.7307 8.7692C15.7865 7.75102 17.5231 6.633 17.9038 6.39233C18.2127 6.56202 18.5498 6.70551 18.9084 6.81939C18.6299 7.18457 18.0831 7.92587 17.4877 8.86616C17.2559 9.2321 17.0448 9.61672 16.8591 9.98478ZM20.6725 10.5221C19.5188 10.499 18.3908 10.3554 17.3125 10.0997C17.4812 9.77 17.6693 9.43078 17.8725 9.10994C18.5586 8.02677 19.1775 7.2135 19.3837 6.94891C19.7951 7.04556 20.2275 7.10668 20.6725 7.12665V10.5221ZM21.128 10.5244V7.13181C21.5671 7.12437 21.9967 7.0779 22.4078 6.99523C22.6434 7.30005 23.2332 8.08386 23.883 9.10994C24.0968 9.44756 24.294 9.80546 24.4693 10.1513C23.3948 10.3889 22.2733 10.5159 21.128 10.5244ZM24.9259 10.0434C24.7333 9.65771 24.5119 9.25153 24.2678 8.86616C23.7031 7.97438 23.1819 7.26148 22.8922 6.87869C23.2735 6.77156 23.6335 6.63232 23.9641 6.46385C24.4985 6.80641 26.0506 7.82983 27.0248 8.7692C27.1541 8.89394 27.2851 9.02719 27.416 9.16536C26.6289 9.5288 25.7945 9.82299 24.9259 10.0434ZM29.5528 7.92215C29.0184 8.30791 28.4474 8.6535 27.8462 8.95734C27.6782 8.7771 27.5087 8.60301 27.341 8.4413C26.4299 7.56266 25.0732 6.6409 24.4085 6.20807C24.6343 6.0617 24.8408 5.89983 25.0249 5.72362C26.6702 6.19372 28.1977 6.94542 29.5528 7.92215ZM21.004 5.16256C22.2069 5.16256 23.376 5.30932 24.4955 5.584C23.6459 6.27405 22.3729 6.67886 21.004 6.67886C19.6288 6.67886 18.3593 6.27534 17.5109 5.58438C18.6308 5.30947 19.8004 5.16256 21.004 5.16256ZM16.9828 5.72362C17.1327 5.86726 17.2967 6.00164 17.4745 6.12555C16.8723 6.51305 15.389 7.50162 14.4145 8.44122C14.2742 8.57652 14.1328 8.72062 13.9919 8.86957C13.4529 8.58737 12.9389 8.27131 12.4552 7.92215C13.8101 6.94542 15.3375 6.1938 16.9828 5.72362Z" fill="white"/>
<path d="M33.1449 28.0089C32.2817 29.2838 31.2241 30.4169 30.0137 31.3634C29.4372 30.9299 28.8185 30.5424 28.1641 30.204C28.9524 29.3148 29.6587 28.3671 29.9202 28.0089H29.3529C29.0032 28.4759 28.3911 29.2679 27.74 29.9943C26.9156 29.6031 26.0404 29.2864 25.128 29.0491C25.3209 28.636 25.4733 28.27 25.577 28.0089H25.0849C24.9806 28.2634 24.8419 28.5863 24.6752 28.9388C23.5367 28.6787 22.3456 28.5402 21.1281 28.5314V28.0089H20.6726V28.5334C19.4461 28.5572 18.2483 28.7136 17.1058 28.9925C16.9278 28.6192 16.7803 28.2763 16.6708 28.0089H16.1786C16.2872 28.2826 16.4494 28.6716 16.6556 29.109C15.7592 29.3566 14.9 29.6811 14.0919 30.0786C13.4128 29.3301 12.7662 28.494 12.4028 28.0089H11.8355C12.1056 28.379 12.8517 29.3798 13.6726 30.2946C13.0814 30.6112 12.52 30.968 11.9942 31.3634C10.7837 30.4168 9.72616 29.2837 8.86301 28.0088H8.31592C11.0103 32.1671 15.691 34.9242 21.0041 34.9242C26.317 34.9242 30.9978 32.1672 33.6922 28.0088L33.1449 28.0089ZM24.9262 29.4672C25.795 29.6875 26.6294 29.9816 27.4166 30.3452C27.2855 30.4835 27.1544 30.617 27.0248 30.742C26.0537 31.6783 24.5065 32.6994 23.9681 33.0447C23.6375 32.8755 23.2771 32.7363 22.8945 32.6291C23.1848 32.2457 23.7046 31.5341 24.2678 30.6449C24.512 30.2594 24.7335 29.853 24.9262 29.4672ZM21.128 28.9868C22.2742 28.9953 23.3957 29.1219 24.4695 29.3592C24.2941 29.7053 24.0969 30.0632 23.8829 30.4011C23.234 31.4258 22.6452 32.2088 22.4088 32.5145C21.9988 32.4328 21.5693 32.3867 21.128 32.3794V28.9868H21.128ZM20.6725 28.9891V32.3841C20.2258 32.404 19.793 32.4643 19.3821 32.5603C19.1744 32.2937 18.5575 31.4827 17.8725 30.4011C17.6691 30.0801 17.4808 29.7406 17.3121 29.4107C18.3898 29.1553 19.5178 29.0121 20.6725 28.9891ZM16.8589 29.5259C17.0446 29.8942 17.2559 30.2788 17.4877 30.6449C18.0827 31.5845 18.6291 32.3253 18.9078 32.6908C18.5487 32.8046 18.212 32.9482 17.9032 33.1184C17.5211 32.8766 15.786 31.7595 14.7307 30.742C14.6271 30.642 14.5224 30.5364 14.4175 30.4275C15.1884 30.0581 16.0062 29.7561 16.8589 29.5259ZM12.3727 31.649C12.8804 31.2758 13.4217 30.9393 13.9912 30.641C14.1323 30.7901 14.274 30.9344 14.4145 31.0699C15.3887 32.0092 16.8715 32.9976 17.4739 33.3852C17.2593 33.5355 17.0637 33.7007 16.8898 33.88C15.2467 33.3985 13.7226 32.6363 12.3727 31.649ZM21.004 34.4688C19.7617 34.4688 18.5551 34.3128 17.4025 34.0204C18.2442 33.2808 19.5807 32.8323 21.004 32.8323C22.4255 32.8323 23.7633 33.2811 24.6051 34.0205C23.4525 34.3128 22.2461 34.4688 21.004 34.4688ZM25.1179 33.88C24.9112 33.6671 24.675 33.4729 24.4115 33.301C25.0773 32.8675 26.4312 31.9471 27.341 31.0698C27.5088 30.908 27.6782 30.7338 27.8464 30.5534C28.4783 30.8731 29.0772 31.2387 29.6352 31.6489C28.2852 32.6363 26.761 33.3986 25.1179 33.88Z" fill="white"/>
<line x1="50.2611" y1="3.57092" x2="50.2611" y2="35.4536" stroke="#0063AD" stroke-width="0.903846"/>
<path d="M57.956 22.8617C58.9509 22.0326 59.7438 21.3434 60.3345 20.7941C60.9253 20.2344 61.4176 19.654 61.8114 19.0529C62.2053 18.4518 62.4022 17.861 62.4022 17.2806C62.4022 16.7521 62.2778 16.3375 62.0291 16.0369C61.7803 15.7364 61.3969 15.5861 60.8787 15.5861C60.3604 15.5861 59.9614 15.7623 59.6816 16.1147C59.4018 16.4567 59.2567 16.9283 59.2463 17.5294H57.132C57.1735 16.2857 57.5414 15.3425 58.2358 14.7C58.9406 14.0574 59.8319 13.7361 60.9097 13.7361C62.0913 13.7361 62.9981 14.0522 63.6303 14.6844C64.2625 15.3063 64.5786 16.1302 64.5786 17.1563C64.5786 17.9647 64.361 18.7368 63.9257 19.4726C63.4904 20.2085 62.9929 20.8511 62.4333 21.4004C61.8736 21.9393 61.1429 22.5922 60.2413 23.3592H64.8274V25.1625H57.1476V23.5457L57.956 22.8617ZM73.4123 15.6327L69.277 25.318H67.0694L71.2358 15.8815H65.919V14.0159H73.4123V15.6327ZM74.7158 19.5037C74.7158 17.7107 75.0371 16.3064 75.6797 15.2907C76.3326 14.275 77.4105 13.7672 78.9133 13.7672C80.4161 13.7672 81.4888 14.275 82.1313 15.2907C82.7843 16.3064 83.1107 17.7107 83.1107 19.5037C83.1107 21.3071 82.7843 22.7218 82.1313 23.7478C81.4888 24.7739 80.4161 25.2869 78.9133 25.2869C77.4105 25.2869 76.3326 24.7739 75.6797 23.7478C75.0371 22.7218 74.7158 21.3071 74.7158 19.5037ZM80.9654 19.5037C80.9654 18.7368 80.9136 18.0942 80.8099 17.576C80.7166 17.0474 80.5197 16.6173 80.2192 16.2857C79.929 15.954 79.4937 15.7882 78.9133 15.7882C78.3329 15.7882 77.8924 15.954 77.5919 16.2857C77.3017 16.6173 77.1047 17.0474 77.0011 17.576C76.9078 18.0942 76.8612 18.7368 76.8612 19.5037C76.8612 20.2914 76.9078 20.9547 77.0011 21.4936C77.0944 22.0222 77.2913 22.4523 77.5919 22.784C77.8924 23.1053 78.3329 23.2659 78.9133 23.2659C79.4937 23.2659 79.9341 23.1053 80.2347 22.784C80.5353 22.4523 80.7322 22.0222 80.8255 21.4936C80.9187 20.9547 80.9654 20.2914 80.9654 19.5037ZM84.7662 19.5037C84.7662 17.7107 85.0875 16.3064 85.73 15.2907C86.383 14.275 87.4608 13.7672 88.9636 13.7672C90.4664 13.7672 91.5391 14.275 92.1817 15.2907C92.8346 16.3064 93.1611 17.7107 93.1611 19.5037C93.1611 21.3071 92.8346 22.7218 92.1817 23.7478C91.5391 24.7739 90.4664 25.2869 88.9636 25.2869C87.4608 25.2869 86.383 24.7739 85.73 23.7478C85.0875 22.7218 84.7662 21.3071 84.7662 19.5037ZM91.0157 19.5037C91.0157 18.7368 90.9639 18.0942 90.8603 17.576C90.767 17.0474 90.5701 16.6173 90.2695 16.2857C89.9793 15.954 89.544 15.7882 88.9636 15.7882C88.3832 15.7882 87.9428 15.954 87.6422 16.2857C87.352 16.6173 87.1551 17.0474 87.0515 17.576C86.9582 18.0942 86.9115 18.7368 86.9115 19.5037C86.9115 20.2914 86.9582 20.9547 87.0515 21.4936C87.1447 22.0222 87.3416 22.4523 87.6422 22.784C87.9428 23.1053 88.3832 23.2659 88.9636 23.2659C89.544 23.2659 89.9845 23.1053 90.2851 22.784C90.5856 22.4523 90.7825 22.0222 90.8758 21.4936C90.9691 20.9547 91.0157 20.2914 91.0157 19.5037ZM94.5522 15.9903V13.9848H98.2989V25.318H96.0602V15.9903H94.5522ZM101.662 25.4268C101.268 25.4268 100.941 25.3076 100.682 25.0693C100.433 24.8205 100.309 24.5148 100.309 24.152C100.309 23.7893 100.433 23.4887 100.682 23.2504C100.941 23.0016 101.268 22.8772 101.662 22.8772C102.045 22.8772 102.361 23.0016 102.61 23.2504C102.859 23.4887 102.983 23.7893 102.983 24.152C102.983 24.5148 102.859 24.8205 102.61 25.0693C102.361 25.3076 102.045 25.4268 101.662 25.4268ZM101.662 18.9907C101.268 18.9907 100.941 18.8715 100.682 18.6331C100.433 18.3844 100.309 18.0787 100.309 17.7159C100.309 17.3532 100.433 17.0526 100.682 16.8142C100.941 16.5655 101.268 16.4411 101.662 16.4411C102.045 16.4411 102.361 16.5655 102.61 16.8142C102.859 17.0526 102.983 17.3532 102.983 17.7159C102.983 18.0787 102.859 18.3844 102.61 18.6331C102.361 18.8715 102.045 18.9907 101.662 18.9907ZM105.217 22.8617C106.212 22.0326 107.005 21.3434 107.595 20.7941C108.186 20.2344 108.678 19.654 109.072 19.0529C109.466 18.4518 109.663 17.861 109.663 17.2806C109.663 16.7521 109.539 16.3375 109.29 16.0369C109.041 15.7364 108.658 15.5861 108.14 15.5861C107.621 15.5861 107.222 15.7623 106.943 16.1147C106.663 16.4567 106.518 16.9283 106.507 17.5294H104.393C104.434 16.2857 104.802 15.3425 105.497 14.7C106.201 14.0574 107.093 13.7361 108.171 13.7361C109.352 13.7361 110.259 14.0522 110.891 14.6844C111.523 15.3063 111.84 16.1302 111.84 17.1563C111.84 17.9647 111.622 18.7368 111.187 19.4726C110.751 20.2085 110.254 20.8511 109.694 21.4004C109.135 21.9393 108.404 22.5922 107.502 23.3592H112.088V25.1625H104.408V23.5457L105.217 22.8617ZM113.46 19.5037C113.46 17.7107 113.781 16.3064 114.424 15.2907C115.077 14.275 116.154 13.7672 117.657 13.7672C119.16 13.7672 120.233 14.275 120.875 15.2907C121.528 16.3064 121.855 17.7107 121.855 19.5037C121.855 21.3071 121.528 22.7218 120.875 23.7478C120.233 24.7739 119.16 25.2869 117.657 25.2869C116.154 25.2869 115.077 24.7739 114.424 23.7478C113.781 22.7218 113.46 21.3071 113.46 19.5037ZM119.709 19.5037C119.709 18.7368 119.657 18.0942 119.554 17.576C119.461 17.0474 119.264 16.6173 118.963 16.2857C118.673 15.954 118.238 15.7882 117.657 15.7882C117.077 15.7882 116.636 15.954 116.336 16.2857C116.046 16.6173 115.849 17.0474 115.745 17.576C115.652 18.0942 115.605 18.7368 115.605 19.5037C115.605 20.2914 115.652 20.9547 115.745 21.4936C115.838 22.0222 116.035 22.4523 116.336 22.784C116.636 23.1053 117.077 23.2659 117.657 23.2659C118.238 23.2659 118.678 23.1053 118.979 22.784C119.279 22.4523 119.476 22.0222 119.569 21.4936C119.663 20.9547 119.709 20.2914 119.709 19.5037ZM124.194 22.8617C125.189 22.0326 125.982 21.3434 126.573 20.7941C127.163 20.2344 127.656 19.654 128.05 19.0529C128.443 18.4518 128.64 17.861 128.64 17.2806C128.64 16.7521 128.516 16.3375 128.267 16.0369C128.018 15.7364 127.635 15.5861 127.117 15.5861C126.599 15.5861 126.2 15.7623 125.92 16.1147C125.64 16.4567 125.495 16.9283 125.484 17.5294H123.37C123.412 16.2857 123.78 15.3425 124.474 14.7C125.179 14.0574 126.07 13.7361 127.148 13.7361C128.329 13.7361 129.236 14.0522 129.868 14.6844C130.501 15.3063 130.817 16.1302 130.817 17.1563C130.817 17.9647 130.599 18.7368 130.164 19.4726C129.729 20.2085 129.231 20.8511 128.671 21.4004C128.112 21.9393 127.381 22.5922 126.479 23.3592H131.066V25.1625H123.386V23.5457L124.194 22.8617ZM133.121 22.8617C134.116 22.0326 134.909 21.3434 135.5 20.7941C136.09 20.2344 136.583 19.654 136.976 19.0529C137.37 18.4518 137.567 17.861 137.567 17.2806C137.567 16.7521 137.443 16.3375 137.194 16.0369C136.945 15.7364 136.562 15.5861 136.044 15.5861C135.525 15.5861 135.126 15.7623 134.847 16.1147C134.567 16.4567 134.422 16.9283 134.411 17.5294H132.297C132.339 16.2857 132.706 15.3425 133.401 14.7C134.106 14.0574 134.997 13.7361 136.075 13.7361C137.256 13.7361 138.163 14.0522 138.795 14.6844C139.428 15.3063 139.744 16.1302 139.744 17.1563C139.744 17.9647 139.526 18.7368 139.091 19.4726C138.655 20.2085 138.158 20.8511 137.598 21.4004C137.039 21.9393 136.308 22.5922 135.406 23.3592H139.992V25.1625H132.313V23.5457L133.121 22.8617Z" fill="#666666"/>
</svg>
