<svg width="26" height="26" viewBox="0 0 26 26" fill="none" xmlns="http://www.w3.org/2000/svg">
<path d="M12 23.25C12.6909 23.25 13.25 22.6909 13.25 22C13.25 21.3091 12.6909 20.75 12 20.75C7.17577 20.75 3.25 16.8242 3.25 12C3.25 7.17578 7.17577 3.25001 12 3.25001C14.4842 3.25001 16.8218 4.32758 18.462 6.12675L16.2236 6.53003C15.5449 6.65332 15.0933 7.30273 15.2153 7.98267C15.3252 8.58692 15.8513 9.01051 16.4446 9.01051C16.5178 9.01051 16.5923 9.00441 16.668 8.99098L21.8877 8.04982C22.2136 7.99122 22.5029 7.80446 22.6921 7.53225C22.8813 7.26003 22.9546 6.92433 22.896 6.59718L21.9548 1.37868C21.8315 0.69997 21.1895 0.24587 20.5022 0.370383C19.8235 0.49367 19.3718 1.14308 19.4939 1.82302L19.884 3.98298C17.8057 1.94538 14.9799 0.750008 12 0.750008C5.79639 0.750008 0.75 5.79639 0.75 12C0.75 18.2036 5.79639 23.25 12 23.25Z" fill="#CCCCCC"/>
<path d="M20.5999 14.5H24.5C25.1909 14.5 25.75 13.9409 25.75 13.25C25.75 12.5591 25.1909 12 24.5 12H23.2378C23.2378 11.3091 22.6787 10.75 21.9878 10.75C21.2969 10.75 20.7378 11.3091 20.7378 12H20.5999C18.615 12 17 13.6785 17 15.7805C17 17.8423 18.615 19.5195 20.5999 19.5195H22.1501C22.7568 19.5195 23.25 20.0762 23.25 20.7598C23.25 21.4434 22.7568 22 22.1501 22H22.0122H22H18.25C17.5591 22 17 22.5591 17 23.25C17 23.9409 17.5591 24.5 18.25 24.5H20.7402C20.741 25.1849 21.289 25.7428 21.9756 25.75C21.9793 25.75 21.9841 25.75 21.9878 25.75C22.6726 25.75 23.2305 25.1982 23.2378 24.5122L23.2398 24.3058C24.6901 23.8227 25.75 22.4245 25.75 20.7598C25.75 18.6968 24.135 17.0195 22.1501 17.0195H20.5999C19.9932 17.0195 19.5 16.4641 19.5 15.7402C19.5 15.0566 19.9932 14.5 20.5999 14.5Z" fill="#CCCCCC"/>
</svg>
