<svg width="20" height="20" viewBox="0 0 20 20" fill="none" xmlns="http://www.w3.org/2000/svg">
<g id="paypal">
<path id="Vector" d="M17.0309 5.92042C16.887 5.7591 16.727 5.61285 16.5535 5.48392C16.6248 4.92567 16.5755 4.35864 16.4091 3.82103C16.2427 3.28342 15.963 2.78773 15.5888 2.36736C14.6855 1.34929 13.1458 0.833344 11.012 0.833344H5.83377C5.45967 0.83434 5.09811 0.968301 4.81367 1.2113C4.52924 1.45429 4.34045 1.79049 4.28104 2.15984L2.12283 15.8317C2.09229 16.015 2.10209 16.2027 2.15154 16.3818C2.20099 16.5608 2.28889 16.727 2.40913 16.8686C2.52937 17.0102 2.67905 17.1239 2.84773 17.2018C3.01642 17.2796 3.20005 17.3197 3.38583 17.3193H5.6059L5.53757 17.7531C5.50994 17.9276 5.52045 18.106 5.56839 18.276C5.61632 18.446 5.70054 18.6036 5.81524 18.738C5.92994 18.8723 6.0724 18.9802 6.23281 19.0542C6.39322 19.1283 6.56776 19.1666 6.74441 19.1667H9.43973C9.78888 19.1695 10.1276 19.0477 10.395 18.8232C10.6625 18.5987 10.8411 18.2863 10.8989 17.9419L11.4328 14.5825L11.4417 14.537H11.6907C15.0509 14.537 17.1497 12.876 17.7617 9.73471C17.9484 9.08625 17.9795 8.40289 17.8525 7.74015C17.7255 7.0774 17.444 6.45395 17.0309 5.92042ZM6.53527 11.4201L5.93987 15.1995L5.86794 15.6527H3.83833L5.91434 2.50001H11.012C12.6249 2.50001 13.7765 2.83693 14.3388 3.47006C14.6042 3.77868 14.7894 4.14807 14.8777 4.54543C14.9661 4.94278 14.955 5.35581 14.8454 5.74784L14.8299 5.84138C14.8198 5.90511 14.8106 5.96737 14.7937 6.04656C14.633 7.23732 14.0379 8.32669 13.1228 9.10534C12.0954 9.81979 10.8572 10.1671 9.60819 10.0912H8.08881C7.71363 10.0899 7.35046 10.2234 7.06535 10.4672C6.78025 10.7111 6.59215 11.0492 6.53527 11.4201ZM16.1259 9.4157C15.6669 11.7725 14.2574 12.8703 11.6907 12.8703H11.2879C10.9384 12.8676 10.5993 12.9897 10.3319 13.2147C10.0644 13.4396 9.88594 13.7527 9.8287 14.0975L9.28753 17.4927L7.26444 17.5L7.66289 14.9718L8.17218 11.7611H9.60493C9.73559 11.7611 9.8511 11.7414 9.97836 11.737C10.2774 11.7266 10.5755 11.7152 10.8556 11.6804C11.0266 11.6591 11.1836 11.6202 11.3475 11.5898C11.5746 11.5479 11.8019 11.5064 12.0151 11.4471C12.1737 11.4029 12.3218 11.3461 12.4727 11.2924C12.672 11.2217 12.8683 11.1474 13.054 11.0602C13.194 10.9943 13.3274 10.921 13.4595 10.8458C13.6353 10.7462 13.8056 10.6372 13.9698 10.5194C14.0883 10.4339 14.2047 10.3461 14.3156 10.2519C14.4728 10.1163 14.6222 9.97195 14.763 9.81944C14.8572 9.71898 14.9536 9.62148 15.0408 9.51339C15.1854 9.3291 15.319 9.13636 15.4408 8.9362C15.5045 8.83438 15.5752 8.74018 15.6338 8.63301C15.8026 8.32412 15.9477 8.00285 16.0678 7.67196C16.075 7.65208 16.0853 7.63529 16.0924 7.61529C16.0957 7.60594 16.1006 7.59815 16.1039 7.58874C16.2691 8.18559 16.2766 8.81505 16.1259 9.4157Z" fill="#FFB100"/>
</g>
</svg>
