<svg width="94" height="36" viewBox="0 0 94 36" fill="none" xmlns="http://www.w3.org/2000/svg">
<g clip-path="url(#clip0_1684_26)">
<path d="M64.3482 20.3687L65.2868 20.6503C65.2243 20.9163 65.1304 21.1353 64.9896 21.3074C64.8488 21.4795 64.6924 21.6203 64.489 21.6985C64.2856 21.7923 64.0353 21.8393 63.7224 21.8393C63.347 21.8393 63.0497 21.7923 62.7994 21.6828C62.5648 21.5733 62.3614 21.3856 62.1893 21.104C62.0172 20.838 61.9233 20.4782 61.9233 20.0558C61.9233 19.4927 62.0798 19.0546 62.377 18.7417C62.6743 18.4288 63.1123 18.288 63.6598 18.288C64.0979 18.288 64.4264 18.3819 64.6767 18.554C64.927 18.7261 65.1148 18.992 65.2243 19.3675L64.2856 19.5709C64.2543 19.4614 64.223 19.3831 64.1761 19.3362C64.1135 19.258 64.0509 19.1954 63.9571 19.1485C63.8632 19.1015 63.7694 19.0859 63.6755 19.0859C63.4408 19.0859 63.2531 19.1798 63.1279 19.3831C63.0341 19.5239 62.9871 19.7586 62.9871 20.0558C62.9871 20.4313 63.0497 20.6973 63.1592 20.8381C63.2687 20.9788 63.4408 21.0571 63.6442 21.0571C63.8476 21.0571 64.004 20.9945 64.0979 20.885C64.223 20.7442 64.3013 20.5877 64.3482 20.3687Z" fill="#225E63"/>
<path d="M65.6621 20.0558C65.6621 19.4926 65.8186 19.0546 66.1314 18.7417C66.4443 18.4288 66.8824 18.2724 67.4455 18.2724C68.0244 18.2724 68.4624 18.4288 68.7753 18.7261C69.0882 19.039 69.2446 19.4614 69.2446 20.0245C69.2446 20.4313 69.182 20.7598 69.0413 21.0101C68.9005 21.2604 68.7127 21.4638 68.4468 21.6046C68.1965 21.7454 67.8679 21.8236 67.4925 21.8236C67.1014 21.8236 66.7885 21.7611 66.5225 21.6359C66.2722 21.5107 66.0689 21.323 65.8968 21.0414C65.7247 20.7598 65.6621 20.4626 65.6621 20.0558ZM66.7259 20.0558C66.7259 20.4 66.7885 20.6503 66.9136 20.8068C67.0388 20.9632 67.2109 21.0414 67.4455 21.0414C67.6802 21.0414 67.8523 20.9632 67.9774 20.8224C68.1026 20.666 68.1652 20.4 68.1652 20.0245C68.1652 19.696 68.1026 19.4614 67.9618 19.3206C67.8367 19.1641 67.6489 19.1015 67.4299 19.1015C67.2109 19.1015 67.0388 19.1798 66.9136 19.3362C66.7885 19.4614 66.7259 19.7117 66.7259 20.0558Z" fill="#225E63"/>
<path d="M69.7925 18.335H71.1849L71.7168 20.4313L72.2487 18.335H73.641V21.7767H72.7649V19.1485L72.0922 21.7767H71.31L70.6373 19.1485V21.7767H69.7612V18.335H69.7925Z" fill="#225E63"/>
<path d="M74.3291 18.335H76.0969C76.488 18.335 76.7696 18.4288 76.9573 18.6166C77.1451 18.8043 77.2389 19.0546 77.2389 19.3988C77.2389 19.743 77.1294 20.0246 76.926 20.2123C76.7227 20.4157 76.3941 20.5095 75.9717 20.5095H75.3929V21.7923H74.3291V18.335ZM75.3929 19.8055H75.6589C75.8622 19.8055 76.003 19.7742 76.0969 19.696C76.1751 19.6178 76.222 19.5396 76.222 19.4301C76.222 19.3206 76.1908 19.2267 76.1125 19.1485C76.0343 19.0703 75.9092 19.039 75.7058 19.039H75.4086V19.8055H75.3929Z" fill="#225E63"/>
<path d="M77.8022 18.335H78.866V20.9319H80.5243V21.7767H77.8022V18.335Z" fill="#225E63"/>
<path d="M81.0562 18.335H82.12V21.7767H81.0562V18.335Z" fill="#225E63"/>
<path d="M84.9986 21.1979H83.794L83.6219 21.7611H82.5425L83.8409 18.3193H84.9986L86.2971 21.7611H85.1863L84.9986 21.1979ZM84.7796 20.4626L84.4041 19.2267L84.0287 20.4626H84.7796Z" fill="#225E63"/>
<path d="M86.6255 18.335H87.6111L88.9095 20.2436V18.335H89.9108V21.7767H88.9095L87.6267 19.8838V21.7767H86.6255V18.335Z" fill="#225E63"/>
<path d="M90.3799 18.335H93.6182V19.1798H92.5388V21.7767H91.475V19.1798H90.3955V18.335H90.3799Z" fill="#225E63"/>
<path d="M51.5511 23.5758L54.633 22.6058L53.6318 20.3844C52.8965 21.3074 52.1613 22.4963 51.5511 23.5758ZM50.503 13.4227L44.4643 -0.0312805L0.253906 2.47179L12.5033 35.8877L36.0791 28.4568C34.5772 26.2979 34.0297 23.7322 35.7662 22.4807C37.7061 21.0727 40.6315 22.6997 42.4932 24.9994C44.2922 21.9957 49.3453 15.0028 50.503 13.4227Z" fill="#225E63"/>
<path d="M43.0871 9.69152C44.9331 9.69152 46.435 8.28354 46.435 6.53139C46.435 4.77924 44.9331 3.37127 43.0871 3.37127C41.2411 3.37127 39.7393 4.77924 39.7393 6.53139C39.7393 8.26789 41.2411 9.69152 43.0871 9.69152ZM40.3494 11.0526H45.8248V25.367H40.3494V11.0526Z" fill="#FEFEFE"/>
<path d="M37.6428 15.2296C37.6897 15.2452 37.721 15.2296 37.721 15.1826V11.5532C37.721 11.5062 37.6897 11.4593 37.6428 11.428C37.6428 11.428 36.9232 10.9587 34.733 10.8335C34.6235 10.771 32.6993 10.7553 32.183 10.8335C24.2045 11.475 23.9072 17.2477 23.9072 17.498V18.9059C23.9072 19.078 23.9072 24.9759 32.183 25.4921C32.9965 25.5547 34.5766 25.4921 34.733 25.4921C36.6416 25.4921 37.9557 24.9133 37.9557 24.9133C38.0026 24.8977 38.0339 24.8507 38.0339 24.8038V21.409C38.0339 21.3621 38.0026 21.3464 37.9713 21.3777C37.9713 21.3777 37.3769 21.847 34.7799 22.113C34.0446 22.1912 33.6848 22.1599 33.4189 22.113C29.7269 21.4872 29.5548 18.7964 29.5548 18.7964C29.5548 18.7495 29.5391 18.6713 29.5391 18.64V17.6075C29.5391 17.5605 29.5391 17.4823 29.5548 17.451C29.5548 17.451 29.8051 14.5569 33.4189 14.244H34.7799C36.36 14.4473 37.6428 15.2296 37.6428 15.2296Z" fill="#FEFEFE"/>
<path d="M8.70117 25.32C8.70117 25.367 8.73246 25.3983 8.77939 25.3983H14.1141C14.161 25.3983 14.1923 25.367 14.1923 25.32V21.1587C14.1923 21.1118 14.2236 21.0805 14.2705 21.0805C14.2705 21.0805 22.7966 21.6906 22.7966 15.9805C22.7966 11.4593 17.4463 10.9743 15.6941 11.0526C15.6628 11.0526 8.77939 11.0526 8.77939 11.0526C8.73246 11.0526 8.70117 11.0838 8.70117 11.1308V25.32ZM14.0984 17.9047V14.1658H15.4125C15.4125 14.1658 17.3055 14.244 17.4619 15.5424C17.4932 15.6363 17.4932 16.2777 17.4619 16.309C17.2116 17.8265 15.569 17.9047 15.569 17.9047H14.0984Z" fill="#FEFEFE"/>
<path d="M43.2439 32.2739C43.682 32.2739 44.0261 32.2739 44.5893 32.0236C46.5292 31.0068 53.0841 15.0028 59.9988 10.0749C60.0458 10.0436 60.0927 9.99663 60.124 9.9497C60.1709 9.88712 60.1709 9.82454 60.1709 9.82454C60.1709 9.82454 60.1709 9.49602 59.154 9.49602C53.0059 9.32393 46.6074 22.2304 43.2439 27.3304C43.197 27.393 42.978 27.3304 42.978 27.3304C42.978 27.3304 40.7252 24.6709 38.7697 23.654C38.7228 23.6384 38.5037 23.5601 38.2691 23.5758C38.1126 23.5758 37.2053 23.7635 36.7829 24.2015C36.2823 24.7334 36.2979 25.0307 36.2979 25.6721C36.2979 25.719 36.3292 25.938 36.3918 26.0476C36.8767 26.8923 39.0513 29.896 40.8504 31.5543C41.1163 31.7577 41.5387 32.2739 43.2439 32.2739Z" fill="#2BBC5D"/>
<path d="M61.814 5.24081H66.9296C67.9465 5.24081 68.76 5.38161 69.3701 5.64756C69.9959 5.92915 70.5121 6.32026 70.9032 6.82087C71.31 7.33713 71.6072 7.9316 71.7793 8.6043C71.967 9.277 72.0609 9.99663 72.0609 10.7632C72.0609 11.9522 71.9201 12.8752 71.6542 13.5322C71.3882 14.1893 71.0127 14.7368 70.5278 15.1905C70.0428 15.6285 69.5265 15.9258 68.979 16.0822C68.2281 16.2856 67.5397 16.3795 66.9296 16.3795H61.814V5.24081ZM65.2557 7.75952V13.8451H66.1005C66.8201 13.8451 67.3364 13.7669 67.6336 13.6104C67.9308 13.454 68.1811 13.1724 68.3532 12.7813C68.5253 12.3902 68.6192 11.7331 68.6192 10.8414C68.6192 9.65246 68.4315 8.85461 68.0403 8.41657C67.6492 7.97853 67.0235 7.75952 66.1161 7.75952H65.2557Z" fill="#225E63"/>
<path d="M73.0151 12.7031L76.3004 12.4997C76.3786 13.0316 76.5194 13.4384 76.7385 13.7199C77.0983 14.1736 77.5989 14.3926 78.2559 14.3926C78.7409 14.3926 79.132 14.2831 79.398 14.0485C79.6639 13.8138 79.8047 13.5479 79.8047 13.2506C79.8047 12.969 79.6796 12.7031 79.4293 12.4684C79.1789 12.2338 78.5845 12.0304 77.6615 11.827C76.144 11.4828 75.0802 11.0291 74.4231 10.466C73.7661 9.90277 73.4532 9.18314 73.4532 8.30706C73.4532 7.72823 73.6253 7.19633 73.9538 6.68007C74.2823 6.16381 74.7829 5.77271 75.4556 5.47547C76.1283 5.17823 77.0357 5.03743 78.1934 5.03743C79.617 5.03743 80.7121 5.30338 81.4473 5.83528C82.1983 6.36719 82.6363 7.21197 82.7771 8.36964L79.5231 8.55737C79.4292 8.05676 79.2572 7.69694 78.9756 7.46228C78.694 7.22762 78.3185 7.11811 77.8335 7.11811C77.4268 7.11811 77.1296 7.19633 76.9262 7.36841C76.7228 7.5405 76.6289 7.74387 76.6289 7.99418C76.6289 8.16627 76.7072 8.33835 76.8792 8.47915C77.0357 8.61995 77.4268 8.76074 78.0369 8.88589C79.5388 9.21442 80.6182 9.54295 81.2753 9.87148C81.9323 10.2 82.4016 10.6224 82.6989 11.1074C82.9961 11.5923 83.1369 12.1555 83.1369 12.7657C83.1369 13.4853 82.9335 14.1423 82.5424 14.7368C82.1513 15.3469 81.5881 15.8006 80.8842 16.1135C80.1802 16.4264 79.2728 16.5828 78.1934 16.5828C76.3004 16.5828 74.9863 16.223 74.251 15.4877C73.5314 14.7525 73.1246 13.8295 73.0151 12.7031Z" fill="#225E63"/>
<path d="M84.0127 12.7031L87.298 12.4997C87.3762 13.0316 87.517 13.4384 87.736 13.7199C88.0958 14.1736 88.5964 14.3926 89.2535 14.3926C89.7385 14.3926 90.1296 14.2831 90.3955 14.0485C90.6615 13.8138 90.8023 13.5479 90.8023 13.2506C90.8023 12.969 90.6771 12.7031 90.4268 12.4684C90.1765 12.2338 89.582 12.0304 88.659 11.827C87.1415 11.4828 86.0777 11.0291 85.4207 10.466C84.7793 9.90277 84.4507 9.18314 84.4507 8.30706C84.4507 7.72823 84.6228 7.19633 84.9513 6.68007C85.2799 6.16381 85.7805 5.77271 86.4532 5.47547C87.1259 5.17823 88.0332 5.03743 89.1909 5.03743C90.6145 5.03743 91.7096 5.30338 92.4449 5.83528C93.1958 6.36719 93.6339 7.21197 93.7747 8.36964L90.5207 8.55737C90.4268 8.05676 90.2547 7.69694 89.9731 7.46228C89.6915 7.22762 89.3161 7.11811 88.8311 7.11811C88.4243 7.11811 88.1271 7.19633 87.9237 7.36841C87.7204 7.5405 87.6265 7.74387 87.6265 7.99418C87.6265 8.16627 87.7047 8.33835 87.8768 8.47915C88.0332 8.61995 88.4243 8.76074 89.0345 8.88589C90.5363 9.21442 91.6158 9.54295 92.2728 9.87148C92.9299 10.2 93.3992 10.6224 93.6964 11.1074C93.9937 11.5923 94.1345 12.1555 94.1345 12.7657C94.1345 13.4853 93.9311 14.1423 93.54 14.7368C93.1489 15.3469 92.5857 15.8006 91.8817 16.1135C91.1777 16.4264 90.2704 16.5828 89.1909 16.5828C87.298 16.5828 85.9839 16.223 85.2486 15.4877C84.5133 14.7525 84.1066 13.8295 84.0127 12.7031Z" fill="#225E63"/>
</g>
<defs>
<clipPath id="clip0_1684_26">
<rect width="94" height="36" fill="white"/>
</clipPath>
</defs>
</svg>
