<svg width="28" height="26" viewBox="0 0 28 26" fill="none" xmlns="http://www.w3.org/2000/svg">
<path d="M5.59081 3.82322L5.16403 4.24999H5.76759H9.00001C11.6189 4.24999 13.75 6.38052 13.75 8.99999C13.75 11.6195 11.6189 13.75 9.00001 13.75H5.25001C4.69769 13.75 4.25001 13.3028 4.25001 12.75C4.25001 12.1972 4.69769 11.75 5.25001 11.75H9.00001C10.5169 11.75 11.75 10.5162 11.75 8.99999C11.75 7.48379 10.5169 6.24999 9.00001 6.24999H5.76759H5.16403L5.59081 6.67677L7.20702 8.29298C7.59766 8.68363 7.59766 9.31636 7.20702 9.707C7.01161 9.90241 6.75619 9.99999 6.50001 9.99999C6.24383 9.99999 5.9884 9.90241 5.793 9.70702L2.04406 5.95808L2.04383 5.95785C1.95219 5.86645 1.87874 5.75597 1.82746 5.63202C1.72643 5.38774 1.72637 5.11228 1.82734 4.86806C1.87872 4.74404 1.9522 4.63354 2.04383 4.54214L2.04406 4.54191L5.793 0.792983L5.61622 0.616206L5.793 0.792983C6.18364 0.402339 6.81638 0.402339 7.20702 0.792983C7.59766 1.18363 7.59766 1.81636 7.20702 2.207L5.59081 3.82322Z" fill="#CCCCCC" stroke="#CCCCCC" stroke-width="0.5"/>
<path d="M18.8421 9.15L18.8388 9.00341C18.8099 7.73711 18.2406 6.52529 17.2485 5.66748C16.788 5.26983 16.0931 5.32059 15.697 5.78116L15.6968 5.78137C15.2999 6.24116 15.3503 6.93507 15.8102 7.33257C16.3491 7.79718 16.65 8.42596 16.65 9.10131V10.25V20.25V20.4H16.5H9.60929H9.5347L9.48968 20.3405C8.94498 19.6208 8.09161 19.15 7.125 19.15C6.2313 19.15 5.43668 19.5548 4.88942 20.1843L4.82239 20.2614L4.7261 20.2273C3.83627 19.9118 3.14972 19.1846 3.01008 18.2795L3.01006 18.2793L2.91487 17.6581C2.60369 15.64 2.52267 13.5852 2.67488 11.5498L2.67489 11.5497C2.72053 10.9452 2.26619 10.4166 1.66038 10.3715L1.65874 10.3714C1.04543 10.3189 0.526676 10.7784 0.481377 11.3866L0.481371 11.3867C0.316215 13.5872 0.403649 15.8097 0.740659 17.992L0.740686 17.9922L0.835873 18.6133C1.10336 20.3461 2.39507 21.7533 4.08239 22.3229L4.17304 22.3535L4.18352 22.4486C4.34741 23.9368 5.59702 25.1 7.125 25.1C8.56118 25.1 9.76333 24.0766 10.0398 22.72L10.0642 22.6H10.1868H17.75H19.0633H19.1858L19.2102 22.72C19.4867 24.0766 20.6888 25.1 22.125 25.1C23.6311 25.1 24.8675 23.9701 25.0601 22.5128L25.0723 22.4208L25.1601 22.3906C26.5756 21.9043 27.6 20.5753 27.6 19V17.2788C27.6 15.6638 27.0591 14.0675 26.0776 12.7851L18.8421 9.15ZM18.8421 9.15H18.9887H20.9568C22.4195 9.15 23.8238 9.84357 24.7134 11.004C24.7135 11.0041 24.7135 11.0041 24.7135 11.0041L26.0775 12.785L18.8421 9.15ZM24.3979 20.2296L24.4711 20.3173L24.5751 20.2699C25.0575 20.0504 25.4 19.568 25.4 19V17.2788C25.4 16.1436 25.0205 15.0238 24.3309 14.1236L22.9668 12.3427C22.491 11.7208 21.7395 11.35 20.9568 11.35H19H18.85V11.5V20.25V20.4H19H19.6407H19.7153L19.7603 20.3405C20.305 19.6208 21.1584 19.15 22.125 19.15C23.0397 19.15 23.8503 19.5742 24.3979 20.2296Z" fill="#CCCCCC" stroke="#F5F6F7" stroke-width="0.3"/>
</svg>
