<svg width="20" height="16" viewBox="0 0 20 16" fill="none" xmlns="http://www.w3.org/2000/svg">
<path fill-rule="evenodd" clip-rule="evenodd" d="M17.0003 5.50651C17.0003 4.67816 17.6718 4.00665 18.5001 4.00665C19.036 4.00665 19.5311 4.29252 19.7991 4.75658C20.067 5.22064 20.067 5.79238 19.7991 6.25644C19.5311 6.72049 19.036 7.00637 18.5001 7.00637C18.4194 7.00439 18.339 6.99603 18.2596 6.98137L16.0004 13.0058H4.00153L1.74231 6.98137C1.66291 6.99603 1.58248 7.00439 1.50177 7.00637C0.83672 7.00716 0.25056 6.56991 0.0618012 5.93221C-0.126957 5.2945 0.126767 4.60865 0.685105 4.24732C1.24344 3.886 1.97305 3.9355 2.47746 4.36893C2.98188 4.80236 3.14064 5.5162 2.86748 6.12256L5.1267 7.47854C5.3571 7.61637 5.63324 7.65576 5.89298 7.58785C6.15272 7.51994 6.37424 7.35043 6.50768 7.11747L9.05438 2.66317C8.56212 2.26256 8.3753 1.59549 8.58788 0.99748C8.80046 0.399471 9.36643 0 10.0011 0C10.6358 0 11.2017 0.399471 11.4143 0.99748C11.6269 1.59549 11.4401 2.26256 10.9478 2.66317L13.4945 7.11885C13.6277 7.35205 13.8491 7.52186 14.1089 7.59004C14.3687 7.65822 14.6449 7.61904 14.8755 7.48132L17.1392 6.12506C17.0484 5.93144 17.001 5.72034 17.0003 5.50651ZM3.50311 14.0059H16.5019C16.7777 14.0066 17.0011 14.23 17.0018 14.5058V15.5057C17.0011 15.7815 16.7777 16.0049 16.5019 16.0057H3.50311C3.22731 16.0049 3.00393 15.7815 3.00316 15.5057V14.5058C3.00393 14.23 3.22731 14.0066 3.50311 14.0059Z" fill="#FAFAFA"/>
<path fill-rule="evenodd" clip-rule="evenodd" d="M17.0003 5.50651C17.0003 4.67816 17.6718 4.00665 18.5001 4.00665C19.036 4.00665 19.5311 4.29252 19.7991 4.75658C20.067 5.22064 20.067 5.79238 19.7991 6.25644C19.5311 6.72049 19.036 7.00637 18.5001 7.00637C18.4194 7.00439 18.339 6.99603 18.2596 6.98137L16.0004 13.0058H4.00153L1.74231 6.98137C1.66291 6.99603 1.58248 7.00439 1.50177 7.00637C0.83672 7.00716 0.25056 6.56991 0.0618012 5.93221C-0.126957 5.2945 0.126767 4.60865 0.685105 4.24732C1.24344 3.886 1.97305 3.9355 2.47746 4.36893C2.98188 4.80236 3.14064 5.5162 2.86748 6.12256L5.1267 7.47854C5.3571 7.61637 5.63324 7.65576 5.89298 7.58785C6.15272 7.51994 6.37424 7.35043 6.50768 7.11747L9.05438 2.66317C8.56212 2.26256 8.3753 1.59549 8.58788 0.99748C8.80046 0.399471 9.36643 0 10.0011 0C10.6358 0 11.2017 0.399471 11.4143 0.99748C11.6269 1.59549 11.4401 2.26256 10.9478 2.66317L13.4945 7.11885C13.6277 7.35205 13.8491 7.52186 14.1089 7.59004C14.3687 7.65822 14.6449 7.61904 14.8755 7.48132L17.1392 6.12506C17.0484 5.93144 17.001 5.72034 17.0003 5.50651ZM3.50311 14.0059H16.5019C16.7777 14.0066 17.0011 14.23 17.0018 14.5058V15.5057C17.0011 15.7815 16.7777 16.0049 16.5019 16.0057H3.50311C3.22731 16.0049 3.00393 15.7815 3.00316 15.5057V14.5058C3.00393 14.23 3.22731 14.0066 3.50311 14.0059Z" fill="white"/>
</svg>
