<svg width="25" height="25" viewBox="0 0 25 25" fill="none" xmlns="http://www.w3.org/2000/svg">
<g clip-path="url(#clip0_655_12)">
<path fill-rule="evenodd" clip-rule="evenodd" d="M0.92131 9.87821C0.47501 9.85277 0.168994 10.0205 0 10.4348L0.000652486 10.4341V10.776C0.163774 11.2099 0.487407 11.3711 0.93697 11.3509C1.11217 11.3427 1.28797 11.3451 1.46372 11.3475C1.65451 11.35 1.84525 11.3526 2.0351 11.3417C2.26608 11.3287 2.31306 11.4089 2.31241 11.6262C2.30636 13.2295 2.30693 14.8323 2.30751 16.4354V16.4354V16.4355V16.4355V16.4356C2.30767 16.9071 2.30784 17.3787 2.30784 17.8503C2.30784 18.5458 2.55514 18.7977 3.24025 18.7977C3.34656 18.7977 3.45292 18.798 3.5593 18.7983H3.55937H3.55944H3.5595H3.55957C3.84354 18.7991 4.12767 18.7998 4.41146 18.7951C4.54065 18.7925 4.61047 18.8238 4.66397 18.9576C5.15921 20.2012 6.21362 20.9379 7.48858 20.9444C8.76158 20.9509 9.83949 20.2097 10.3295 18.9797C10.3811 18.8499 10.4443 18.8107 10.5775 18.8107C12.7822 18.8147 14.987 18.8147 17.1917 18.8107C17.3372 18.8101 17.4005 18.8571 17.454 18.9947C17.9238 20.1966 19.0187 20.947 20.2812 20.945C21.551 20.9431 22.6328 20.1973 23.1013 18.9882C23.1561 18.8479 23.2265 18.8055 23.3681 18.8107C23.6363 18.8205 23.9051 18.8173 24.1733 18.8127C24.7155 18.8029 24.9967 18.5165 24.9967 17.9743C24.9972 17.396 24.9971 16.8179 24.997 16.2398V16.2398V16.2397V16.2397V16.2397C24.9968 15.1661 24.9966 14.0927 25 13.0193C25.0007 12.7831 24.9204 12.5945 24.7605 12.4294C24.4327 12.0919 24.1048 11.7545 23.7769 11.4171L23.7764 11.4166C22.7436 10.354 21.711 9.29145 20.6825 8.22481C20.4698 8.00427 20.2323 7.90053 19.9263 7.90379C19.5521 7.90789 19.178 7.90742 18.8039 7.90694C18.405 7.90643 18.0061 7.90592 17.6073 7.91097C17.4286 7.91358 17.3737 7.87182 17.3757 7.68455C17.3834 7.0144 17.3822 6.34461 17.3811 5.67464V5.67458V5.67451V5.67445V5.67438L17.3811 5.67111C17.3807 5.43098 17.3803 5.19083 17.3803 4.95064C17.3803 4.27205 17.1343 4.02541 16.4583 4.02411L3.35247 4.00258L3.35056 4.00255C3.29442 4.00191 3.23765 4.00126 3.18152 3.99997C2.5995 3.98757 2.2837 4.32229 2.29675 4.90431C2.3058 5.28213 2.30583 5.65995 2.30587 6.03778C2.30589 6.28634 2.30591 6.53491 2.3085 6.78347C2.3098 6.90679 2.27391 6.9616 2.14276 6.95508C1.99661 6.9479 1.8498 6.94855 1.70364 6.95834C1.33433 6.98248 1.04855 7.27153 1.02636 7.63562C1.00418 7.99905 1.25212 8.31616 1.61425 8.39511C1.76234 8.42758 1.91192 8.42275 2.06039 8.41797L2.12515 8.41599C2.25825 8.41208 2.31306 8.44927 2.3098 8.59282C2.30132 8.95886 2.30067 9.3249 2.3098 9.69095C2.31372 9.83906 2.26739 9.88931 2.11666 9.88604C1.95164 9.88226 1.78627 9.88419 1.6209 9.88612C1.38742 9.88885 1.15392 9.89158 0.92131 9.87821ZM11.1858 5.48942C10.7389 5.48921 10.292 5.48901 9.84506 5.48901L9.84375 5.48966V5.49945H5.59672C5.44756 5.49945 5.29839 5.49995 5.14922 5.50045C4.76139 5.50176 4.37356 5.50307 3.98573 5.49553C3.81544 5.49227 3.76063 5.54055 3.76715 5.71281C3.77955 6.05406 3.77955 6.39661 3.76715 6.73786C3.76063 6.91143 3.82 6.95906 3.989 6.9571C4.46052 6.95096 4.9317 6.952 5.40303 6.95304L5.40329 6.95304C5.58279 6.95344 5.76231 6.95384 5.94189 6.95384C6.14144 6.95384 6.34103 6.9534 6.54065 6.95296H6.54072H6.54079H6.54085H6.54092H6.54095H6.54097H6.541H6.54102C7.07363 6.9518 7.60639 6.95063 8.13881 6.95775C8.53552 6.96297 8.82326 7.2455 8.84741 7.62198C8.87351 8.02326 8.63143 8.33189 8.23146 8.39909C8.13554 8.41541 8.03702 8.41736 7.9398 8.41736L7.12082 8.41805C6.08382 8.41911 5.04705 8.42016 4.00988 8.41345C3.81544 8.4128 3.75671 8.46761 3.76585 8.65944C3.78151 8.98437 3.78412 9.31127 3.76585 9.63555C3.75345 9.84957 3.83697 9.88937 4.03076 9.88676C4.5477 9.87922 5.06499 9.88053 5.58212 9.88184H5.58214H5.58215H5.58217H5.58219H5.58225H5.58232H5.58239H5.58245C5.78125 9.88234 5.98002 9.88285 6.17874 9.88285C6.3152 9.88285 6.4516 9.88214 6.58797 9.88143L6.58813 9.88143C6.92379 9.87969 7.25921 9.87795 7.59463 9.88676C8.08465 9.89981 8.40176 10.3168 8.29606 10.7885C8.21841 11.1356 7.91761 11.3464 7.48306 11.347C7.00544 11.3476 6.5277 11.3474 6.04995 11.3473H6.04994H6.04993H6.04992H6.0499C5.41291 11.3471 4.77588 11.3468 4.13907 11.3483C4.08697 11.3485 4.04214 11.3478 4.00356 11.3472C3.88391 11.3452 3.82449 11.3443 3.79554 11.3735C3.76697 11.4024 3.76807 11.4606 3.77024 11.5762C3.77092 11.6128 3.77172 11.655 3.77172 11.7039C3.77032 12.9129 3.77059 14.1218 3.77085 15.3308L3.77107 16.7816C3.77107 17.0607 3.77107 17.1996 3.84048 17.2686C3.90915 17.3369 4.04574 17.3369 4.31747 17.3368H4.31748L4.33481 17.3368C4.48228 17.3368 4.54557 17.2925 4.58537 17.1489C4.95729 15.8029 6.11349 14.9142 7.49024 14.9083C8.86307 14.9024 10.0421 15.7944 10.4068 17.1313C10.4564 17.3114 10.5347 17.3532 10.7076 17.3532C12.3513 17.3473 13.9949 17.3447 15.6385 17.3551C15.8662 17.3564 15.9034 17.2807 15.9021 17.0765C15.8943 15.596 15.8956 14.1162 15.8982 12.6357C15.9021 10.3415 15.9067 8.04675 15.9204 5.75261C15.9217 5.5399 15.8721 5.48248 15.6548 5.48379C14.1651 5.49081 12.6754 5.49012 11.1858 5.48942ZM7.5094 19.4809C6.64485 19.4848 5.95517 18.8081 5.94734 17.9475C5.93886 17.0699 6.6194 16.3776 7.49308 16.3731C8.3635 16.3685 9.06688 17.0667 9.06362 17.9312C9.06035 18.7873 8.36872 19.4769 7.5094 19.4809ZM18.715 17.9391C18.7267 18.7977 19.419 19.4809 20.2777 19.4809H20.2783C21.152 19.4802 21.83 18.7977 21.8319 17.9143C21.8339 17.0595 21.1409 16.3724 20.2777 16.3724C19.4092 16.3731 18.7032 17.081 18.715 17.9391ZM17.362 16.9427V15.6821C17.362 15.5202 17.3623 15.3583 17.3626 15.1965V15.1964C17.3634 14.7648 17.3642 14.3333 17.3594 13.9015C17.3575 13.7521 17.4051 13.7084 17.5539 13.7084C19.4891 13.7129 21.4238 13.7129 23.359 13.7084C23.5013 13.7084 23.5352 13.7554 23.5346 13.8898C23.5318 14.5551 23.5317 15.2202 23.5315 15.8854V15.8868C23.5315 16.3105 23.5314 16.7342 23.5306 17.1581C23.5306 17.1717 23.5318 17.186 23.533 17.2004V17.2004C23.5387 17.2706 23.5446 17.3436 23.4191 17.3512C23.2866 17.359 23.2312 17.3029 23.2018 17.1829C23.04 16.5199 22.6863 15.9758 22.1513 15.5562C20.5749 14.3211 18.299 14.9031 17.4945 16.7431C17.4754 16.787 17.458 16.8315 17.4406 16.876L17.4405 16.8761C17.4318 16.8983 17.4232 16.9206 17.4142 16.9427H17.362ZM22.2874 12.2474H22.5307H22.5314L22.2731 11.9799C21.445 11.1226 20.6511 10.3006 19.8588 9.47757C19.7851 9.40189 19.7081 9.37057 19.6017 9.37057C18.9264 9.37448 18.2511 9.3784 17.5758 9.36861C17.3996 9.366 17.3585 9.42733 17.3598 9.59241C17.367 10.3976 17.3689 11.2034 17.3585 12.0086C17.3559 12.2004 17.4087 12.2526 17.6012 12.2519C18.8082 12.2459 20.0153 12.2465 21.2223 12.247C21.5773 12.2472 21.9323 12.2474 22.2874 12.2474Z" fill="#FEB000"/>
</g>
<defs>
<clipPath id="clip0_655_12">
<rect width="25" height="25" fill="white"/>
</clipPath>
</defs>
</svg>
