<svg width="25" height="26" viewBox="0 0 25 26" fill="none" xmlns="http://www.w3.org/2000/svg">
<g clip-path="url(#clip0_655_2)">
<path d="M6.9566 3.63977C7.15585 3.62577 7.35577 3.59045 7.55301 3.60245C8.08079 3.6351 8.4553 4.03427 8.46063 4.54671C8.46662 5.05849 8.10478 5.46832 7.581 5.52296C6.29888 5.65691 5.0161 5.78618 3.73331 5.91413C3.01628 5.98543 2.50717 5.32371 2.73107 4.60602C3.02561 3.66242 3.33015 2.72216 3.63069 1.78056C3.71932 1.50334 3.80262 1.2248 3.89857 0.950248C4.07583 0.442464 4.57495 0.175911 5.06808 0.317851C5.57386 0.463122 5.85774 0.932922 5.74645 1.46136C5.70714 1.64662 5.63517 1.82521 5.57519 2.01779C5.67715 2.06444 5.74445 1.96581 5.81909 1.91983C7.92086 0.605062 10.2139 -0.0399965 12.6882 0.00198554C18.5963 0.102609 23.6628 4.36412 24.773 10.1443C26.0678 16.8848 21.705 23.402 14.9599 24.7994C14.1762 24.962 13.3812 25.0353 12.5809 25.0486C11.9625 25.0586 11.5033 24.6395 11.5073 24.0797C11.5107 23.5213 11.9425 23.1268 12.5615 23.1161C17.1942 23.0355 21.1559 20.1747 22.5493 15.7479C23.7208 12.0255 22.9958 8.60232 20.4822 5.61159C18.8129 3.62511 16.6458 2.44428 14.0816 2.05378C11.4747 1.65661 9.03771 2.17173 6.8 3.58312C6.8 3.66709 6.802 3.66842 6.9566 3.64043V3.63977Z" fill="#FEB000"/>
<path d="M1.24522 10.7361C0.603496 10.7374 0.159019 10.171 0.314286 9.52462C0.468887 8.87756 0.677465 8.24583 0.94535 7.63609C1.16726 7.13097 1.68837 6.91107 2.18282 7.10432C2.67994 7.2989 2.92251 7.84 2.72193 8.35778C2.51135 8.90088 2.32609 9.44998 2.17283 10.0117C2.04755 10.4729 1.69503 10.7354 1.24522 10.7361Z" fill="#FEB000"/>
<path d="M5.74707 22.5211C5.75773 21.856 6.44277 21.3749 7.04852 21.6535C7.65092 21.9307 8.24534 22.2272 8.84975 22.5038C9.29222 22.7057 9.46348 23.2501 9.28156 23.7006C9.10364 24.1417 8.62184 24.4063 8.16404 24.2657C7.44701 24.0451 6.7773 23.7086 6.14024 23.3141C5.87235 23.1482 5.74241 22.8416 5.74774 22.5211H5.74707Z" fill="#FEB000"/>
<path d="M2.8599 17.7578C3.04582 17.7578 3.31904 17.895 3.50762 18.1782C3.83082 18.6627 4.18334 19.1232 4.55584 19.571C4.92435 20.0141 4.86305 20.6025 4.43789 20.9477C4.02207 21.2856 3.44898 21.2243 3.07847 20.8018C2.64533 20.3073 2.24749 19.7856 1.89898 19.2285C1.70239 18.9139 1.6964 18.5834 1.86832 18.2562C2.03025 17.9477 2.35145 17.7617 2.85923 17.7584L2.8599 17.7578Z" fill="#FEB000"/>
<path d="M0.00107695 13.6322C-0.0222464 13.0038 0.335601 12.564 0.847383 12.5213C1.40781 12.474 1.84296 12.8338 1.90893 13.4063C1.9729 13.9594 2.05353 14.5078 2.18081 15.0509C2.30676 15.5893 1.98423 16.1065 1.47445 16.2204C0.931347 16.3417 0.437557 16.0305 0.304281 15.4814C0.151679 14.851 0.0477237 14.2126 0.00107695 13.6322Z" fill="#FEB000"/>
<path d="M6.95622 3.63977C6.87493 3.69241 6.78696 3.68908 6.69434 3.67109C6.705 3.60711 6.75298 3.59579 6.79962 3.58246C6.83494 3.64843 6.90558 3.61578 6.95622 3.63977Z" fill="#FEE2A2"/>
<path fill-rule="evenodd" clip-rule="evenodd" d="M19.8446 12.5326C19.8513 8.47103 16.5687 5.17977 12.5038 5.17244H12.5044C8.44349 5.16511 5.15023 8.4497 5.14356 12.5126C5.1369 16.5736 8.42217 19.8682 12.4838 19.8735C16.5467 19.8788 19.838 16.5969 19.8446 12.5326ZM12.4968 7.07965C9.49676 7.07832 7.04847 9.52594 7.04981 12.526H7.05047C7.05114 15.5234 9.50476 17.971 12.5035 17.967C15.4909 17.963 17.9338 15.5201 17.9378 12.532C17.9418 9.53061 15.4975 7.08098 12.4968 7.07965Z" fill="#FEB000"/>
<path d="M12.4571 16.7675C12.018 16.7675 11.6341 16.463 11.5548 16.0211C11.5289 15.8759 11.4782 15.8339 11.3403 15.8139C11.1277 15.7826 10.9138 15.7353 10.7119 15.6633C10.3021 15.5167 10.1554 15.1362 10.3034 14.6537C10.4227 14.2652 10.7812 14.06 11.181 14.1619C11.5202 14.2479 11.8581 14.3365 12.2119 14.3225C12.3112 14.3185 12.4105 14.3079 12.5078 14.2886C12.7157 14.2472 12.8949 14.1566 12.9289 13.924C12.9616 13.6988 12.8063 13.5769 12.6371 13.4736C12.3865 13.321 12.1053 13.241 11.8361 13.1317C11.5895 13.0311 11.3496 12.9165 11.1277 12.7685C9.85357 11.9189 9.94021 10.2056 11.299 9.49593C11.4649 9.4093 11.5455 9.33134 11.5482 9.12942C11.5535 8.69361 11.914 8.33643 12.3538 8.28512C12.7723 8.23647 13.2328 8.49703 13.3194 8.90619C13.3767 9.17874 13.5167 9.23205 13.7412 9.27669C14.311 9.38998 14.5416 9.82046 14.3357 10.3549C14.1931 10.7254 13.8519 10.908 13.4487 10.8074C13.1628 10.7361 12.8776 10.7028 12.5844 10.7187C12.4745 10.7247 12.3692 10.7467 12.2719 10.7954C12 10.93 11.972 11.1845 12.2139 11.3678C12.4078 11.5151 12.6377 11.5944 12.8623 11.681C13.1961 11.8096 13.522 11.9496 13.8305 12.1348C15.1666 12.9365 15.0374 14.8783 13.6506 15.5533C13.464 15.644 13.3881 15.7373 13.3694 15.9498C13.3274 16.427 12.9223 16.7702 12.4565 16.7708L12.4571 16.7675Z" fill="#FEB000"/>
</g>
<defs>
<clipPath id="clip0_655_2">
<rect width="25" height="25.048" fill="white"/>
</clipPath>
</defs>
</svg>
