<svg width="20" height="26" viewBox="0 0 20 26" fill="none" xmlns="http://www.w3.org/2000/svg">
<path d="M19.5375 2.5625C19.3923 2.44503 19.2226 2.3616 19.0409 2.31833C18.8592 2.27507 18.6701 2.27308 18.4875 2.3125C17.1518 2.59243 15.7729 2.596 14.4358 2.32298C13.0987 2.04997 11.8316 1.50615 10.7125 0.725004C10.5033 0.579845 10.2547 0.50206 10 0.50206C9.74534 0.50206 9.49675 0.579845 9.28751 0.725004C8.16845 1.50615 6.90135 2.04997 5.56422 2.32298C4.22708 2.596 2.84821 2.59243 1.51251 2.3125C1.32993 2.27308 1.14084 2.27507 0.959133 2.31833C0.777427 2.3616 0.607727 2.44503 0.462507 2.5625C0.317481 2.68015 0.200658 2.8288 0.120623 2.99752C0.0405868 3.16625 -0.000627738 3.35076 7.22686e-06 3.5375V12.85C-0.00110407 14.6422 0.425974 16.4087 1.24568 18.0025C2.06538 19.5962 3.25398 20.971 4.71251 22.0125L9.27501 25.2625C9.48671 25.4132 9.74013 25.4942 10 25.4942C10.2599 25.4942 10.5133 25.4132 10.725 25.2625L15.2875 22.0125C16.746 20.971 17.9346 19.5962 18.7543 18.0025C19.574 16.4087 20.0011 14.6422 20 12.85V3.5375C20.0006 3.35076 19.9594 3.16625 19.8794 2.99752C19.7994 2.8288 19.6825 2.68015 19.5375 2.5625ZM17.5 12.85C17.501 14.2435 17.1691 15.617 16.5321 16.8563C15.895 18.0956 14.9712 19.1648 13.8375 19.975L10 22.7125L6.16251 19.975C5.0288 19.1648 4.10499 18.0956 3.46794 16.8563C2.8309 15.617 2.49905 14.2435 2.50001 12.85V4.975C5.12054 5.1993 7.74506 4.59128 10 3.2375C12.255 4.59128 14.8795 5.1993 17.5 4.975V12.85Z" fill="#CCCCCC"/>
</svg>
