<svg width="25" height="25" viewBox="0 0 25 25" fill="none" xmlns="http://www.w3.org/2000/svg">
<g clip-path="url(#clip0_646_2)">
<path d="M17.1878 19.7397C17.4755 19.7397 17.7087 19.5065 17.7087 19.2188C17.7087 18.9312 17.4755 18.698 17.1878 18.698C16.9002 18.698 16.667 18.9312 16.667 19.2188C16.667 19.5065 16.9002 19.7397 17.1878 19.7397Z" fill="#FFB100"/>
<path d="M15.1862 6.87034C15.3673 6.32429 15.0714 5.73483 14.5254 5.55373C13.9793 5.37263 13.3899 5.66849 13.2088 6.21454C13.0277 6.76059 13.3235 7.35005 13.8696 7.53115C14.4156 7.71225 15.0051 7.41639 15.1862 6.87034Z" fill="#FFB100"/>
<path d="M19.792 10.3646H19.5316L21.3024 5.10421C21.5628 4.27087 21.1462 3.38546 20.3128 3.12504L11.4066 0.156291C10.6253 -0.104126 9.84408 0.260457 9.47949 0.989624H4.16699C3.75033 0.989624 3.33366 1.14587 3.07324 1.45837C2.76074 1.71879 2.60449 2.13546 2.60449 2.55212L2.65658 12.448V12.5C2.60449 12.6563 2.60449 12.8125 2.60449 12.9688V22.3438C2.60449 23.8021 3.75033 24.948 5.20866 24.948H19.792C21.2503 24.948 22.3962 23.8021 22.3962 22.3438V12.9688C22.3962 11.5105 21.2503 10.3646 19.792 10.3646ZM21.3545 20.7813H17.1357C16.3024 20.7813 15.6253 20.1042 15.6253 19.2188C15.6253 18.3334 16.3024 17.6563 17.1357 17.6563H21.3545V20.7813ZM11.042 1.14587L19.9482 4.11462C20.1045 4.16671 20.2087 4.27087 20.2607 4.37504C20.3128 4.47921 20.3128 4.63546 20.2607 4.73962L18.3857 10.3646H17.292L18.4378 6.92712C18.4899 6.77087 18.4899 6.66671 18.3857 6.51046C18.3337 6.40629 18.2295 6.30212 18.0732 6.25004C17.5524 6.09379 17.2399 5.46879 17.3962 4.94796C17.5003 4.68754 17.3441 4.37504 17.0837 4.27087L13.1253 2.96879C12.9691 2.91671 12.8649 2.91671 12.7087 3.02087C12.6045 3.07296 12.5003 3.17712 12.4482 3.33337C12.292 3.85421 11.667 4.16671 11.1462 4.01046C10.8857 3.90629 10.5732 4.06254 10.4691 4.32296L8.43783 10.4167H7.34408L10.417 1.45837C10.4691 1.19796 10.7816 1.04171 11.042 1.14587ZM9.63574 10.3646L11.4066 5.05212C12.1878 5.10421 12.8649 4.73962 13.2816 4.11462L16.3545 5.15629C16.3024 5.88546 16.667 6.61462 17.292 7.03129L16.1982 10.3646H9.63574ZM5.72949 10.3646V5.62504C6.45866 5.41671 7.03158 4.84379 7.23991 4.11462H8.43783L6.35449 10.3646H5.72949ZM3.80241 2.18754C3.90658 2.08337 4.01074 2.03129 4.16699 2.03129H9.11491L8.75033 3.07296H6.77116C6.61491 3.07296 6.51074 3.12504 6.40658 3.22921C6.30241 3.28129 6.25033 3.43754 6.25033 3.54171C6.25033 4.11462 5.78158 4.58337 5.20866 4.58337C4.89616 4.58337 4.68783 4.79171 4.68783 5.10421V10.4167C4.32324 10.4688 3.95866 10.6771 3.64616 10.8855V2.55212C3.64616 2.39587 3.69824 2.29171 3.80241 2.18754ZM21.3545 22.3438C21.3545 23.2292 20.6774 23.9063 19.792 23.9063H5.20866C4.32324 23.9063 3.64616 23.2292 3.64616 22.3438V12.9688C3.64616 12.0834 4.32324 11.4063 5.20866 11.4063H19.792C20.6774 11.4063 21.3545 12.0834 21.3545 12.9688V16.6146H17.1357C15.7295 16.6146 14.5837 17.7605 14.5837 19.2188C14.5837 20.6771 15.7295 21.823 17.1357 21.823H21.3545V22.3438Z" fill="#FFB100" stroke="#FFB100" stroke-width="0.2"/>
</g>
<defs>
<clipPath id="clip0_646_2">
<rect width="25" height="25" fill="white"/>
</clipPath>
</defs>
</svg>
